<?xml version="1.0" encoding="UTF-8" standalone="no"?>
<!-- Created with Inkscape (http://www.inkscape.org/) -->

<svg
   xmlns:dc="http://purl.org/dc/elements/1.1/"
   xmlns:cc="http://creativecommons.org/ns#"
   xmlns:rdf="http://www.w3.org/1999/02/22-rdf-syntax-ns#"
   xmlns:svg="http://www.w3.org/2000/svg"
   xmlns="http://www.w3.org/2000/svg"
   xmlns:sodipodi="http://sodipodi.sourceforge.net/DTD/sodipodi-0.dtd"
   xmlns:inkscape="http://www.inkscape.org/namespaces/inkscape"
   width="744.09448819"
   height="1052.3622047"
   id="svg2"
   version="1.1"
   inkscape:version="0.48.3.1 r9886"
   sodipodi:docname="New document 1">
  <defs
     id="defs4" />
  <sodipodi:namedview
     id="base"
     pagecolor="#ffffff"
     bordercolor="#666666"
     borderopacity="1.0"
     inkscape:pageopacity="0.0"
     inkscape:pageshadow="2"
     inkscape:zoom="0.35"
     inkscape:cx="429.28571"
     inkscape:cy="648.57143"
     inkscape:document-units="px"
     inkscape:current-layer="layer1"
     showgrid="false"
     inkscape:window-width="1535"
     inkscape:window-height="876"
     inkscape:window-x="65"
     inkscape:window-y="24"
     inkscape:window-maximized="1" />
  <metadata
     id="metadata7">
    <rdf:RDF>
      <cc:Work
         rdf:about="">
        <dc:format>image/svg+xml</dc:format>
        <dc:type
           rdf:resource="http://purl.org/dc/dcmitype/StillImage" />
        <dc:title></dc:title>
      </cc:Work>
    </rdf:RDF>
  </metadata>
  <g
     inkscape:label="Layer 1"
     inkscape:groupmode="layer"
     id="layer1">
    <path
       style="fill:none;stroke:#000000;stroke-width:1px;stroke-linecap:butt;stroke-linejoin:miter;stroke-opacity:1"
       d="m 68.571429,458.07647 c 11.151851,-4.18195 54.592151,-20.39903 60.000001,-22.85714 8.92647,-4.05749 16.82883,-10.13917 25.71428,-14.28572 5.4583,-2.5472 12.03504,-2.5219 17.14286,-5.71428 2.91191,-1.81995 3.65397,-5.82435 5.71429,-8.57143 1.61624,-2.155 4.50961,-3.30493 5.71428,-5.71429 0.42592,-0.85183 -0.67343,-2.18371 0,-2.85714 0.67344,-0.67344 2.43123,0.85183 2.85715,0 0.85183,-1.70367 -1.05658,-4.12943 0,-5.71429 1.18128,-1.77192 3.75688,-2.01825 5.71428,-2.85714 4.71405,-2.02031 9.52381,-3.80952 14.28572,-5.71429 5.71428,-1.90476 11.5828,-3.39759 17.14285,-5.71428 5.89732,-2.45722 11.24554,-6.11421 17.14286,-8.57143 5.56005,-2.31669 11.42857,-3.80952 17.14286,-5.71429 11.42857,-3.80952 22.85714,-7.61904 34.28571,-11.42857 5.71429,-1.90476 11.18001,-4.86245 17.14286,-5.71428 7.54247,-1.0775 15.29693,0.94502 22.85714,0 7.79289,-0.97411 15.08254,-4.60363 22.85714,-5.71429 5.65686,-0.80812 11.53954,1.12066 17.14286,0 30.70102,-6.1402 3.05042,-5.71428 14.28572,-5.71428 0.95238,0 2.0053,-0.42592 2.85714,0 3.07133,1.53566 5.50009,4.17861 8.57143,5.71428 4.58727,2.29364 9.62903,3.56505 14.28571,5.71429 7.73432,3.56968 15.2381,7.61904 22.85714,11.42857 3.80953,1.90476 7.61905,3.80952 11.42858,5.71428 3.80952,1.90477 8.41687,2.7026 11.42857,5.71429 4.85621,4.85621 7.89516,11.25384 11.42857,17.14286 11.05355,18.42259 16.30243,29.74772 25.71428,48.57143 3.80953,7.61904 7.25236,15.43275 11.42858,22.85714 26.20606,41.92971 3.2464,3.587 25.71428,45.71428 3.61334,6.77501 8.2109,13.02838 11.42857,20 2.52415,5.46899 3.65584,11.48212 5.71429,17.14286 1.75271,4.81995 4.47038,9.31012 5.71428,14.28572 0.69296,2.77183 -0.40406,5.743 0,8.57142 0.55533,3.88731 2.37009,7.53213 2.85715,11.42858 0.47251,3.7801 -0.92395,7.73279 0,11.42857 0.0376,0.15054 11.20641,22.33876 11.42857,22.85714 1.18636,2.76818 1.51027,5.87769 2.85714,8.57143 1.53567,3.07133 3.7184,5.77718 5.71429,8.57143 10.23783,14.33297 19.94173,23.85373 34.28571,34.28571 5.55417,4.0394 11.58869,7.38918 17.14286,11.42857 4.93184,3.5868 8.93212,8.50843 14.28571,11.42857 2.4634,1.34368 23.29772,7.91222 28.57143,8.57143 3.78011,0.47252 7.61905,0 11.42857,0 3.80953,0 7.65734,0.53875 11.42857,0 2.98143,-0.42592 5.71429,-1.90476 8.57143,-2.85714 25.47405,-8.49135 -14.72326,5.09417 22.85715,-8.57143 5.66073,-2.05845 11.85495,-2.82997 17.14285,-5.71428 6.9149,-3.77176 23.92054,-20.21778 28.57143,-25.71429 6.15183,-7.27035 10.62913,-15.90917 17.14286,-22.85714 10.25165,-10.9351 68.40925,-58.36794 71.42857,-60 24.72742,-13.36618 123.3705,-36.10267 142.8571,-40 119.7142,-23.94284 52.5858,-9.61553 160,-14.28572 7.7272,-0.33596 103.766,-10.04439 114.2858,-11.42857 18.1628,-2.38985 36.1404,-6.05126 54.2857,-8.57143 25.2958,-3.5133 59.9035,-6.05132 85.7143,-11.42857 10.6305,-2.2147 21.0277,-5.45117 31.4285,-8.57143 8.6541,-2.59621 17.0905,-5.87649 25.7143,-8.57143 6.6178,-2.06807 13.9801,-2.27433 20,-5.71428 1.6538,-0.94503 0,-3.80953 0,-5.71429 0,-12.38095 0,-24.7619 0,-37.14285 0,-3.80953 0.7471,-7.69303 0,-11.42858 -0.2641,-1.32071 -2.11,-1.73648 -2.8571,-2.85714 -4.3774,-6.56612 -0.2382,-5.71428 -5.7143,-5.71428"
       id="path2985"
       inkscape:connector-curvature="0" />
  </g>
</svg>
